<svg xmlns="http://www.w3.org/2000/svg" viewBox="0 0 1120 940" width="1120" height="940">
  <defs>
    <!-- Card Shadow -->
    <filter id="shadow" x="-5%" y="-5%" width="110%" height="115%" filterUnits="userSpaceOnUse">
      <feDropShadow dx="0" dy="4" stdDeviation="4" flood-color="#000000" flood-opacity="0.35"/>
    </filter>

    <!-- Marker Arrows -->
    <marker id="arrow" viewBox="0 0 10 10" refX="9" refY="5" markerWidth="6" markerHeight="6" orient="auto-start-reverse">
      <path d="M 0 1 L 10 5 L 0 9 z" fill="#64748b"/>
    </marker>
    <marker id="arrow-dashed" viewBox="0 0 10 10" refX="9" refY="5" markerWidth="6" markerHeight="6" orient="auto-start-reverse">
      <path d="M 0 1 L 10 5 L 0 9 z" fill="#94a3b8"/>
    </marker>
    <marker id="arrow-blue" viewBox="0 0 10 10" refX="9" refY="5" markerWidth="6" markerHeight="6" orient="auto-start-reverse">
      <path d="M 0 1 L 10 5 L 0 9 z" fill="#38bdf8"/>
    </marker>
    <marker id="arrow-purple" viewBox="0 0 10 10" refX="9" refY="5" markerWidth="6" markerHeight="6" orient="auto-start-reverse">
      <path d="M 0 1 L 10 5 L 0 9 z" fill="#a78bfa"/>
    </marker>
    <marker id="arrow-emerald" viewBox="0 0 10 10" refX="9" refY="5" markerWidth="6" markerHeight="6" orient="auto-start-reverse">
      <path d="M 0 1 L 10 5 L 0 9 z" fill="#34d399"/>
    </marker>
    <marker id="arrow-amber" viewBox="0 0 10 10" refX="9" refY="5" markerWidth="6" markerHeight="6" orient="auto-start-reverse">
      <path d="M 0 1 L 10 5 L 0 9 z" fill="#fbbf24"/>
    </marker>
    <marker id="arrow-both-start" viewBox="0 0 10 10" refX="1" refY="5" markerWidth="6" markerHeight="6" orient="auto">
      <path d="M 10 1 L 0 5 L 10 9 z" fill="#2dd4bf"/>
    </marker>
    <marker id="arrow-both-end" viewBox="0 0 10 10" refX="9" refY="5" markerWidth="6" markerHeight="6" orient="auto">
      <path d="M 0 1 L 10 5 L 0 9 z" fill="#2dd4bf"/>
    </marker>
  </defs>

  <style>
    .bg { fill: #0b0f19; }
    .border { stroke: #1e293b; stroke-width: 1.5; }
    .title { font-family: -apple-system, BlinkMacSystemFont, "Segoe UI", Roboto, Helvetica, Arial, sans-serif; font-size: 17px; font-weight: 700; fill: #f8fafc; letter-spacing: -0.01em; }
    .subtitle { font-family: -apple-system, BlinkMacSystemFont, "Segoe UI", Roboto, Helvetica, Arial, sans-serif; font-size: 11.5px; fill: #94a3b8; }
    .node-title { font-family: -apple-system, BlinkMacSystemFont, "Segoe UI", Roboto, Helvetica, Arial, sans-serif; font-size: 13px; font-weight: 600; }
    .node-desc { font-family: -apple-system, BlinkMacSystemFont, "Segoe UI", Roboto, Helvetica, Arial, sans-serif; font-size: 11px; }
    .node-code { font-family: ui-monospace, SFMono-Regular, Menlo, Monaco, Consolas, monospace; font-size: 10.5px; }
    .subgraph-title { font-family: -apple-system, BlinkMacSystemFont, "Segoe UI", Roboto, Helvetica, Arial, sans-serif; font-size: 11px; font-weight: 700; text-transform: uppercase; letter-spacing: 0.06em; }
    .edge-label { font-family: -apple-system, BlinkMacSystemFont, "Segoe UI", Roboto, Helvetica, Arial, sans-serif; font-size: 10.5px; font-weight: 500; fill: #cbd5e1; }
    .edge-bg { fill: #1e293b; stroke: #334155; stroke-width: 1; rx: 4px; }
    .flow-line { stroke: #64748b; stroke-width: 1.75; fill: none; }
    .flow-dashed { stroke: #94a3b8; stroke-width: 1.5; stroke-dasharray: 4,4; fill: none; }
  </style>

  <!-- Canvas Background -->
  <rect class="bg" width="1120" height="940" rx="14"/>
  <rect class="border" fill="none" width="1120" height="940" rx="14"/>

  <!-- Diagram Title Header -->
  <g transform="translate(30, 32)">
    <text class="title" y="16">System Architecture — Entry Points, Orchestrator &amp; Services</text>
    <text y="38" class="subtitle">Every entry point converges on the AgentOrchestrator to drive agents, validation, and multi-format outputs.</text>
  </g>

  <!-- SUBGRAPH: ENTRY POINTS -->
  <g id="subgraph-clients">
    <rect x="30" y="75" width="670" height="145" rx="10" fill="#131d2e" stroke="#1e3a5f" stroke-width="1.2" stroke-dasharray="6,4"/>
    <rect x="42" y="65" width="115" height="20" rx="4" fill="#1e3a5f"/>
    <text x="50" y="79" class="subgraph-title" fill="#38bdf8">ENTRY POINTS</text>

    <!-- Node CLI -->
    <g id="node-cli" filter="url(#shadow)">
      <rect x="50" y="98" width="170" height="100" rx="8" fill="#1e293b" stroke="#38bdf8" stroke-width="1.5"/>
      <text x="135" y="124" text-anchor="middle" class="node-title" fill="#e2e8f0">Direct CLI</text>
      <text x="135" y="148" text-anchor="middle" class="node-code" fill="#38bdf8">run_analysis.py</text>
      <text x="135" y="172" text-anchor="middle" class="node-desc" fill="#94a3b8">Explicit agent flag</text>
    </g>

    <!-- Node RT -->
    <g id="node-rt" filter="url(#shadow)">
      <rect x="245" y="98" width="185" height="100" rx="8" fill="#1e293b" stroke="#38bdf8" stroke-width="1.5"/>
      <text x="337" y="124" text-anchor="middle" class="node-title" fill="#e2e8f0">Interactive Router</text>
      <text x="337" y="148" text-anchor="middle" class="node-code" fill="#38bdf8">router.py</text>
      <text x="337" y="172" text-anchor="middle" class="node-desc" fill="#94a3b8">Interactive REPL shell</text>
    </g>

    <!-- Node API -->
    <g id="node-api" filter="url(#shadow)">
      <rect x="455" y="98" width="225" height="100" rx="8" fill="#1e293b" stroke="#38bdf8" stroke-width="1.5"/>
      <text x="567" y="120" text-anchor="middle" class="node-title" fill="#e2e8f0">REST API (FastAPI)</text>
      <text x="567" y="140" text-anchor="middle" class="node-code" fill="#38bdf8">api.py</text>
      <text x="567" y="160" text-anchor="middle" class="node-desc" fill="#cbd5e1">/route · /analyze · /parse · /jobs</text>
      <text x="567" y="178" text-anchor="middle" class="node-desc" fill="#94a3b8">in-memory async job store</text>
    </g>
  </g>

  <!-- Node DP: document_parser -->
  <g id="node-dp" filter="url(#shadow)">
    <rect x="740" y="98" width="345" height="100" rx="8" fill="#1a2333" stroke="#0ea5e9" stroke-width="1.5"/>
    <text x="912" y="128" text-anchor="middle" class="node-title" fill="#38bdf8">📄 document_parser</text>
    <text x="912" y="152" text-anchor="middle" class="node-desc" fill="#e2e8f0">PDF · docx · txt · md · rtf · doc</text>
    <text x="912" y="174" text-anchor="middle" class="node-code" fill="#7dd3fc">→ structured markdown</text>
  </g>

  <!-- Node ROUTE: Router LLM -->
  <g id="node-route" filter="url(#shadow)">
    <polygon points="460,250 565,295 460,340 355,295" fill="#2d2212" stroke="#fbbf24" stroke-width="1.5"/>
    <text x="460" y="291" text-anchor="middle" class="node-title" fill="#fde68a">Router LLM</text>
    <text x="460" y="308" text-anchor="middle" class="node-code" fill="#fbbf24">route_agent()</text>
  </g>

  <!-- Node ORCH: AgentOrchestrator -->
  <g id="node-orch" filter="url(#shadow)">
    <rect x="300" y="390" width="320" height="75" rx="8" fill="#231d3d" stroke="#818cf8" stroke-width="1.75"/>
    <text x="460" y="420" text-anchor="middle" class="node-title" fill="#c7d2fe">AgentOrchestrator</text>
    <text x="460" y="442" text-anchor="middle" class="node-code" fill="#a5b4fc">run_analysis.py</text>
  </g>

  <!-- SUBGRAPH: SHARED SERVICES -->
  <g id="subgraph-services">
    <rect x="680" y="360" width="405" height="215" rx="10" fill="#0f2628" stroke="#145350" stroke-width="1.2" stroke-dasharray="6,4"/>
    <rect x="692" y="350" width="135" height="20" rx="4" fill="#145350"/>
    <text x="700" y="364" class="subgraph-title" fill="#2dd4bf">SHARED SERVICES</text>

    <!-- WEB -->
    <g id="node-web" filter="url(#shadow)">
      <rect x="705" y="385" width="355" height="48" rx="6" fill="#133838" stroke="#2dd4bf" stroke-width="1.2"/>
      <text x="720" y="407" class="node-title" fill="#99f6e4">🌐 Web Research</text>
      <text x="720" y="423" class="node-desc" fill="#94a3b8">Tavily → SerpAPI → DuckDuckGo priority chain</text>
    </g>

    <!-- COST -->
    <g id="node-cost" filter="url(#shadow)">
      <rect x="705" y="445" width="355" height="48" rx="6" fill="#133838" stroke="#2dd4bf" stroke-width="1.2"/>
      <text x="720" y="467" class="node-title" fill="#99f6e4">💰 CostTracker</text>
      <text x="720" y="483" class="node-desc" fill="#94a3b8">Per-phase tokens, cost sync &amp; limits</text>
    </g>

    <!-- TRACE -->
    <g id="node-trace" filter="url(#shadow)">
      <rect x="705" y="505" width="355" height="52" rx="6" fill="#133838" stroke="#2dd4bf" stroke-width="1.2"/>
      <text x="720" y="527" class="node-title" fill="#99f6e4">🔭 Observability &amp; Tracing</text>
      <text x="720" y="545" class="node-desc" fill="#94a3b8">Phoenix + OpenTelemetry (LangSmith optional)</text>
    </g>
  </g>

  <!-- Node AGENT: Agent LLM pipeline -->
  <g id="node-agent" filter="url(#shadow)">
    <rect x="300" y="500" width="320" height="75" rx="8" fill="#2e1a47" stroke="#a78bfa" stroke-width="1.75"/>
    <text x="460" y="529" text-anchor="middle" class="node-title" fill="#e9d5ff">🧠 Agent LLM Pipeline</text>
    <text x="460" y="552" text-anchor="middle" class="node-desc" fill="#c084fc">(black box — see Diagrams 2 and 3)</text>
  </g>

  <!-- Stage 4: Validation, Disclaimer & Cache -->
  <!-- Node REFVAL: Reference validation -->
  <g id="node-refval" filter="url(#shadow)">
    <rect x="300" y="615" width="320" height="65" rx="8" fill="#16273e" stroke="#38bdf8" stroke-width="1.5"/>
    <text x="460" y="642" text-anchor="middle" class="node-title" fill="#bae6fd">🔗 Reference Validation</text>
    <text x="460" y="662" text-anchor="middle" class="node-desc" fill="#7dd3fc">CitationURLCorrespondenceValidator</text>
  </g>

  <!-- Node RVC: SQLite Cache -->
  <g id="node-rvc" filter="url(#shadow)">
    <rect x="705" y="615" width="355" height="65" rx="8" fill="#162e2c" stroke="#2dd4bf" stroke-width="1.5"/>
    <text x="882" y="642" text-anchor="middle" class="node-title" fill="#99f6e4">🗄️ SQLite Reference Cache</text>
    <text x="882" y="662" text-anchor="middle" class="node-code" fill="#5eead4">cache/reference_validation.db (30d TTL)</text>
  </g>

  <!-- Node DISC: Hardcoded disclaimer -->
  <g id="node-disc" filter="url(#shadow)">
    <rect x="300" y="715" width="320" height="50" rx="8" fill="#3b111e" stroke="#f43f5e" stroke-width="1.5"/>
    <text x="460" y="745" text-anchor="middle" class="node-title" fill="#fecdd3">🛡️ Hardcoded Medical Disclaimer</text>
  </g>

  <!-- Stage 5: Outputs & Database -->
  <!-- Node FILES: outputs/ -->
  <g id="node-files" filter="url(#shadow)">
    <rect x="130" y="805" width="410" height="85" rx="8" fill="#0c2d25" stroke="#34d399" stroke-width="1.75"/>
    <text x="335" y="833" text-anchor="middle" class="node-title" fill="#a7f3d0">📁 Artifact Storage (outputs/)</text>
    <text x="335" y="855" text-anchor="middle" class="node-desc" fill="#6ee7b7">patient · practitioner · summary (.md &amp; .pdf)</text>
    <text x="335" y="873" text-anchor="middle" class="node-code" fill="#a7f3d0">result/session .json · cost_report.json · audit.json</text>
  </g>

  <!-- Node DB: SQLAlchemy Database -->
  <g id="node-db" filter="url(#shadow)">
    <rect x="630" y="805" width="430" height="85" rx="8" fill="#16223b" stroke="#60a5fa" stroke-width="1.5"/>
    <text x="845" y="833" text-anchor="middle" class="node-title" fill="#bfdbfe">🗃️ SQLAlchemy Database (SQLite / Postgres)</text>
    <text x="845" y="855" text-anchor="middle" class="node-desc" fill="#93c5fd">users · subjects · reports · report_files · patient_data</text>
    <text x="845" y="873" text-anchor="middle" class="node-desc" fill="#64748b">gated by DB_PERSISTENCE_ENABLED (best-effort)</text>
  </g>

  <!-- EDGES & CONNECTORS -->
  <!-- Clients -> DP (optional file) -->
  <path d="M 700 148 L 740 148" class="flow-line" marker-end="url(#arrow)"/>
  <rect x="696" y="131" width="42" height="15" class="edge-bg"/>
  <text x="717" y="142" text-anchor="middle" class="edge-label" font-size="9.5">file</text>

  <!-- RT -> ROUTE -->
  <path d="M 337 198 L 337 245 L 410 270" class="flow-line" marker-end="url(#arrow)"/>

  <!-- API -> ROUTE -->
  <path d="M 567 198 L 567 245 L 510 270" class="flow-line" marker-end="url(#arrow)"/>

  <!-- CLI -> ORCH (explicit agent) -->
  <path d="M 135 198 L 135 425 L 300 425" class="flow-line" marker-end="url(#arrow)"/>
  <rect x="142" y="340" width="80" height="18" class="edge-bg"/>
  <text x="182" y="353" text-anchor="middle" class="edge-label">explicit agent</text>

  <!-- DP -> ORCH (document context) -->
  <path d="M 912 198 L 912 280 L 640 280 L 640 405 L 620 405" class="flow-line" marker-end="url(#arrow)"/>
  <rect x="675" y="271" width="95" height="18" class="edge-bg"/>
  <text x="722" y="284" text-anchor="middle" class="edge-label">doc context</text>

  <!-- ROUTE -> ORCH (selected agent id) -->
  <path d="M 460 340 L 460 390" class="flow-line" marker-end="url(#arrow-amber)"/>
  <rect x="408" y="352" width="104" height="18" class="edge-bg"/>
  <text x="460" y="365" text-anchor="middle" class="edge-label" fill="#fde68a">selected agent</text>

  <!-- ORCH -> AGENT -->
  <path d="M 460 465 L 460 500" class="flow-line" marker-end="url(#arrow-purple)"/>

  <!-- Services <-> Pipeline -->
  <!-- WEB -.-> AGENT (web context) -->
  <path d="M 705 409 L 660 409 L 660 525 L 620 525" class="flow-dashed" marker-end="url(#arrow-dashed)"/>
  <rect x="625" y="475" width="70" height="17" class="edge-bg"/>
  <text x="660" y="487" text-anchor="middle" class="edge-label">web context</text>

  <!-- AGENT -.-> COST -->
  <path d="M 620 540 L 650 540 L 650 469 L 705 469" class="flow-dashed" marker-end="url(#arrow-dashed)"/>

  <!-- AGENT -.-> TRACE -->
  <path d="M 620 555 L 705 555" class="flow-dashed" marker-end="url(#arrow-dashed)"/>

  <!-- ROUTE -.-> TRACE -->
  <path d="M 545 315 L 670 315 L 670 515 L 705 515" class="flow-dashed" marker-end="url(#arrow-dashed)"/>

  <!-- AGENT -> REFVAL -->
  <path d="M 460 575 L 460 615" class="flow-line" marker-end="url(#arrow-blue)"/>

  <!-- REFVAL <-> RVC -->
  <path d="M 620 647 L 705 647" class="flow-line" marker-start="url(#arrow-both-start)" marker-end="url(#arrow-both-end)"/>

  <!-- REFVAL -> DISC -->
  <path d="M 460 680 L 460 715" class="flow-line" marker-end="url(#arrow)"/>

  <!-- DISC -> FILES -->
  <path d="M 460 765 L 460 785 L 335 785 L 335 805" class="flow-line" marker-end="url(#arrow-emerald)"/>

  <!-- ORCH -.-> DB (_persist_report_to_db) -->
  <path d="M 300 445 L 270 445 L 270 760 L 650 760 L 650 805" class="flow-dashed" marker-end="url(#arrow-dashed)"/>
  <rect x="420" y="751" width="180" height="18" class="edge-bg"/>
  <text x="510" y="764" text-anchor="middle" class="edge-label">_persist_report_to_db (best effort)</text>

  <!-- FILES -> DB -->
  <path d="M 540 847 L 630 847" class="flow-line" marker-end="url(#arrow)"/>

  <!-- FILES -.-> API (/outputs static mount) -->
  <path d="M 130 847 L 70 847 L 70 230 L 485 230 L 485 198" class="flow-dashed" marker-end="url(#arrow-dashed)"/>
  <rect x="18" y="530" width="105" height="18" class="edge-bg"/>
  <text x="70" y="543" text-anchor="middle" class="edge-label">/outputs mount</text>

</svg>